#!OML:ASF F:\VICON\USERDATA\Patient Classification 1\PLAYGROUND\JustinFriday\JustinFriday.ASF
:FULLY-SPECIFIED
:DEGREES
2086
root 14.3172 27.3504 45.2383 380.289 -170.677 4.48613
lowerback 27.3106 3.31212 3.77624
upperback 10.6554 2.92321 2.19047
thorax -3.07593 0.509954 -0.554375
lowerneck -5.34283 -9.2984 -5.24162
upperneck -10.5059 -12.1726 11.0912
head -1.38032 -6.45174 4.41128
rclavicle -1.31198e-014 -2.78299e-014
rhumerus 1.70656 23.7003 -68.8513
rradius 59.0869
rwrist 15.1382
rhand -47.3395 -12.6485
rfingers 7.12502
rthumb -20.0337 -41.6357
lclavicle -1.31198e-014 -2.78299e-014
lhumerus 22.5535 -37.4837 56.8083
lradius 49.3162
lwrist -18.6417
lhand -16.4228 -29.1656
lfingers 7.12502
lthumb 9.79224 0.586705
rfemur -33.291 -3.03477 33.1507
rtibia 36.9816
rfoot -7.3141 -23.5837
rtoes 50.6998
lfemur -36.0635 9.00665 -10.263
ltibia 50.3972
lfoot -25.0672 -6.57354
ltoes -4.95565
2087
root 14.3145 27.3653 45.1755 380.703 -170.516 4.25554
lowerback 27.1442 3.09916 3.82507
upperback 10.6229 2.67551 2.03351
thorax -3.03106 0.407249 -0.680288
lowerneck -5.21199 -9.36906 -5.69832
upperneck -10.2877 -12.2222 11.5507
head -1.26438 -6.45939 4.64639
rclavicle 3.29983e-014 -1.15295e-014
rhumerus 1.67071 23.8864 -69.1787
rradius 58.8774
rwrist 14.9277
rhand -48.0852 -13.0066
rfingers 7.12502
rthumb -20.7503 -41.9171
lclavicle 3.29983e-014 -1.15295e-014
lhumerus 22.0383 -37.3272 56.9448
lradius 49.212
lwrist -19.7503
lhand -16.6521 -29.4357
lfingers 7.12502
lthumb 9.57099 0.326896
rfemur -33.3028 -2.93958 32.9294
rtibia 36.5956
rfoot -7.44323 -23.9935
rtoes 50.8172
lfemur -36.3895 8.71246 -10.463
ltibia 49.6927
lfoot -25.3689 -6.70786
ltoes -5.9813
2088
root 14.2989 27.3759 45.1217 380.883 -169.841 4.1151
lowerback 27.3389 2.62505 4.45186
upperback 10.5914 2.23022 1.94901
thorax -3.12941 0.206198 -1.00639
lowerneck -4.92008 -9.41538 -5.96443
upperneck -10.3681 -12.265 11.7336
head -1.30812 -6.4818 4.77886
rclavicle 4.8901e-014 -5.1684e-015
rhumerus 1.41673 23.9279 -69.4973
rradius 58.8936
rwrist 15.016
rhand -49.6645 -18.8628
rfingers 7.12502
rthumb -22.2671 -47.6
lclavicle 4.8901e-014 -5.1684e-015
lhumerus 21.5319 -37.2354 57.0377
lradius 49.2013
lwrist -20.9543
lhand -16.845 -29.6462
lfingers 7.12502
lthumb 9.38493 0.124849
rfemur -33.1538 -3.24004 32.908
rtibia 36.1465
rfoot -8.01694 -24.5716
rtoes 50.7524
lfemur -36.6211 7.80925 -10.407
ltibia 48.9615
lfoot -26.063 -6.03571
ltoes -8.94204
2089
root 14.2765 27.3887 45.0692 380.769 -168.943 3.8663
lowerback 28.2064 2.17357 5.13841
upperback 10.505 1.8563 1.93917
thorax -3.60736 0.0183395 -1.31108
lowerneck -5.13145 -9.62365 -6.02528
upperneck -10.1384 -12.5274 11.913
head -1.15242 -6.60076 4.8134
rclavicle -5.96354e-015 4.77083e-015
rhumerus 1.06066 23.8049 -69.6181
rradius 58.8555
rwrist 15.2252
rhand -47.8795 -9.03955
rfingers 7.12502
rthumb -20.5526 -37.9716
lclavicle -5.96354e-015 4.77083e-015
lhumerus 21.2025 -37.4153 57.1481
lradius 49.3849
lwrist -21.6194
lhand -17.1027 -29.816
lfingers 7.12502
lthumb 9.13621 -0.0339285
rfemur -32.6892 -3.82744 32.8005
rtibia 35.7013
rfoot -8.45909 -25.0812
rtoes 50.7174
lfemur -36.55 6.50857 -10.3612
ltibia 48.206
lfoot -26.4665 -5.66355
ltoes -10.9933
2090
root 14.3164 27.4062 44.9653 381.463 -170.782 4.53746
lowerback 26.9343 3.26229 3.83793
upperback 10.5802 2.90544 1.99189
thorax -2.96863 0.533727 -0.793311
lowerneck -4.19801 -9.71629 -6.23799
upperneck -10.7905 -12.5563 12.7026
head -1.26969 -6.6745 4.68591
rclavicle 4.53229e-014 1.66979e-014
rhumerus 0.878198 23.9858 -69.6785
rradius 58.6737
rwrist 15.2111
rhand -48.0508 -8.11117
rfingers 7.12502
rthumb -20.7172 -37.0253
lclavicle 4.53229e-014 1.66979e-014
lhumerus 20.8468 -37.4273 57.3869
lradius 49.5336
lwrist -22.0698
lhand -17.2847 -29.7256
lfingers 7.12502
lthumb 8.96065 0.0640728
rfemur -32.5873 -2.47011 33.2196
rtibia 35.1802
rfoot -8.34109 -24.3968
rtoes 50.7284
lfemur -36.5083 8.9928 -10.2449
ltibia 47.4269
lfoot -26.9877 -6.70806
ltoes -11.7808
2091
root 14.3228 27.4133 44.8977 382.025 -171.064 4.53912
lowerback 26.4375 3.37963 3.54097
upperback 10.5275 3.01158 1.93218
thorax -2.80823 0.603043 -0.708065
lowerneck -3.66283 -9.81231 -6.42716
upperneck -10.9641 -12.6599 12.9421
head -1.36568 -6.73899 4.816
rclavicle -3.26007e-014 -3.49861e-014
rhumerus 0.730358 24.2647 -69.8149
rradius 58.5192
rwrist 15.1965
rhand -48.312 -7.90988
rfingers 7.12502
rthumb -20.9682 -36.7965
lclavicle -3.26007e-014 -3.49861e-014
lhumerus 20.4028 -37.288 57.6851
lradius 49.6709
lwrist -22.3546
lhand -17.5625 -29.8084
lfingers 7.12502
lthumb 8.69251 -0.00732876
rfemur -32.6836 -2.11223 33.2188
rtibia 34.7271
rfoot -8.12446 -24.288
rtoes 50.7456
lfemur -36.8061 9.09793 -10.296
ltibia 46.6374
lfoot -27.2362 -7.23223
ltoes -11.9222
2092
root 14.3145 27.4229 44.8319 382.372 -171.005 4.35783
lowerback 26.2369 3.34318 3.45266
upperback 10.538 2.94826 1.87288
thorax -2.70691 0.58079 -0.700144
lowerneck -3.29168 -9.95369 -6.38412
upperneck -11.0403 -12.8346 13.0507
head -1.42546 -6.83636 4.85812
rclavicle -3.61788e-014 -1.70955e-014
rhumerus 0.157162 24.2352 -70.0461
rradius 58.9806
rwrist 15.5141
rhand -48.4341 -8.26704
rfingers 7.12502
rthumb -21.0855 -37.1406
lclavicle -3.61788e-014 -1.70955e-014
lhumerus 19.9874 -37.11 58.0176
lradius 49.8992
lwrist -22.6484
lhand -17.8346 -30.0035
lfingers 7.12502
lthumb 8.42995 -0.191778
rfemur -32.5944 -2.12237 33.0514
rtibia 34.2912
rfoot -8.08525 -24.396
rtoes 50.6942
lfemur -36.8891 8.52429 -10.3988
ltibia 45.8448
lfoot -27.3639 -7.5804
ltoes -11.4755
2093
root 14.2963 27.4256 44.7654 382.512 -170.653 4.11636
lowerback 26.0977 3.17481 3.62896
upperback 10.6145 2.75713 1.84649
thorax -2.54823 0.494842 -0.772884
lowerneck -2.57794 -10.0771 -6.42784
upperneck -11.3501 -12.9684 13.3335
head -1.59314 -6.93107 4.99595
rclavicle 3.37934e-014 2.34566e-014
rhumerus -0.374058 24.1387 -70.21
rradius 59.3926
rwrist 15.8457
rhand -48.5786 -9.05427
rfingers 7.12502
rthumb -21.2242 -37.9123
lclavicle 3.37934e-014 2.34566e-014
lhumerus 19.5633 -36.9442 58.3603
lradius 50.2214
lwrist -22.7611
lhand -18.0668 -30.0575
lfingers 7.12502
lthumb 8.20588 -0.236864
rfemur -32.3983 -2.40344 32.8757
rtibia 34.0324
rfoot -8.0951 -24.5984
rtoes 50.6592
lfemur -36.8559 7.94485 -10.5476
ltibia 45.0757
lfoot -27.3501 -8.1084
ltoes -10.672
2094
root 14.2766 27.4262 44.7004 382.493 -170.216 3.98845
lowerback 26.0432 2.98975 3.96956
upperback 10.7107 2.57359 1.87361
thorax -2.39969 0.410061 -0.885121
lowerneck -1.46032 -10.1884 -6.50744
upperneck -11.9884 -13.0733 13.7022
head -1.91652 -7.03576 5.20646
rclavicle -6.36111e-015 2.0276e-014
rhumerus -0.67395 24.2492 -70.2038
rradius 59.4925
rwrist 15.8397
rhand -48.9392 -10.2132
rfingers 7.12502
rthumb -21.5707 -39.0319
lclavicle -6.36111e-015 2.0276e-014
lhumerus 19.0433 -36.8647 58.7777
lradius 50.6703
lwrist -22.7764
lhand -18.2754 -30.1475
lfingers 7.12502
lthumb 8.00452 -0.3191
rfemur -32.0605 -2.6854 32.8141
rtibia 33.8299
rfoot -8.27822 -24.809
rtoes 50.6809
lfemur -36.693 7.27826 -10.5254
ltibia 44.334
lfoot -27.2372 -8.51733
ltoes -10.7588
2095
root 14.2605 27.4278 44.6396 382.782 -170.005 3.67996
lowerback 25.6777 2.89182 3.94475
upperback 10.7691 2.43498 1.82133
thorax -2.16614 0.355236 -0.883391
lowerneck -0.285688 -10.3131 -6.55937
upperneck -12.6797 -13.1885 14.1139
head -2.26313 -7.15414 5.43574
rclavicle 1.31198e-014 -4.37326e-015
rhumerus -1.08503 24.1341 -70.4556
rradius 59.7279
rwrist 16.0342
rhand -49.1511 -11.4434
rfingers 7.12502
rthumb -21.7741 -40.2387
lclavicle 1.31198e-014 -4.37326e-015
lhumerus 18.444 -36.7684 59.198
lradius 51.1977
lwrist -22.9054
lhand -18.4585 -30.2034
lfingers 7.12502
lthumb 7.82783 -0.368293
rfemur -32.026 -2.72114 32.4972
rtibia 33.664
rfoot -8.31484 -24.7065
rtoes 50.9712
lfemur -36.7774 6.54206 -10.7311
ltibia 43.6285
lfoot -27.0444 -8.73014
ltoes -10.9779
2096
root 14.2453 27.4252 44.5793 383.242 -169.868 3.47484
lowerback 25.6018 2.66659 4.0031
upperback 10.655 2.19578 1.69425
thorax -2.25783 0.257203 -0.991526
lowerneck -0.243513 -10.3489 -6.711
upperneck -12.5377 -13.2262 14.3137
head -2.19705 -7.16844 5.51061
rclavicle 2.54444e-014 -7.95139e-016
rhumerus -1.38536 24.1753 -70.9699
rradius 59.8748
rwrist 16.192
rhand -49.2712 -12.2671
rfingers 7.12502
rthumb -21.8894 -41.0489
lclavicle 2.54444e-014 -7.95139e-016
lhumerus 17.5399 -36.3247 59.6475
lradius 51.7435
lwrist -23.1957
lhand -18.6257 -30.1899
lfingers 7.12502
lthumb 7.66646 -0.34889
rfemur -32.1996 -2.69845 32.3125
rtibia 33.5114
rfoot -8.16908 -24.5365
rtoes 51.1951
lfemur -37.0433 6.1161 -10.9033
ltibia 42.9488
lfoot -26.8467 -8.79686
ltoes -8.97762
2097
root 14.2321 27.4205 44.5147 383.668 -169.666 3.58101
lowerback 25.1057 2.54887 4.24883
upperback 10.6248 2.11636 1.73297
thorax -2.04449 0.243721 -1.06045
lowerneck 0.16746 -10.3437 -6.69423
upperneck -12.5761 -13.2168 14.2372
head -2.28393 -7.16469 5.51361
rclavicle -1.03368e-014 -6.36111e-015
rhumerus -1.68423 24.0307 -71.2989
rradius 59.9512
rwrist 16.4408
rhand -49.5391 -13.2419
rfingers 7.12502
rthumb -22.1467 -41.9934
lclavicle -1.03368e-014 -6.36111e-015
lhumerus 16.7019 -35.9754 60.3631
lradius 52.1987
lwrist -23.7595
lhand -18.7691 -30.302
lfingers 7.12502
lthumb 7.52799 -0.455981
rfemur -32.3818 -2.72433 32.5245
rtibia 33.3527
rfoot -8.29799 -24.6221
rtoes 51.2226
lfemur -37.3379 5.91453 -10.7428
ltibia 42.2998
lfoot -26.6841 -8.67959
ltoes -11.9203
2098
root 14.2111 27.4195 44.4481 384.015 -169.414 3.51423
lowerback 24.5364 2.43029 4.46523
upperback 10.7072 1.99289 1.76317
thorax -1.67362 0.203951 -1.10982
lowerneck 0.884894 -10.6029 -6.88487
upperneck -12.6758 -13.5221 14.6584
head -2.35057 -7.33704 5.70632
rclavicle 8.74653e-015 2.78299e-015
rhumerus -1.93642 23.83 -71.4792
rradius 60.0772
rwrist 16.7895
rhand -49.8723 -14.2191
rfingers 7.12502
rthumb -22.4666 -42.9323
lclavicle 8.74653e-015 2.78299e-015
lhumerus 16.0153 -35.7279 61.0059
lradius 52.6903
lwrist -24.3899
lhand -18.8697 -30.3659
lfingers 7.12502
lthumb 7.4309 -0.516438
rfemur -32.4549 -2.93568 32.5423
rtibia 33.1893
rfoot -8.70398 -24.6971
rtoes 51.2241
lfemur -37.4763 5.34842 -10.7024
ltibia 41.662
lfoot -26.4698 -8.66508
ltoes -11.6844
2099
root 14.1919 27.4143 44.3818 384.271 -169.388 3.49471
lowerback 24.5592 2.32702 4.60642
upperback 10.6915 1.89377 1.72242
thorax -1.69689 0.1618 -1.20972
lowerneck 0.324423 -10.5476 -6.59672
upperneck -12.1525 -13.4906 14.0885
head -2.17568 -7.27284 5.43638
rclavicle 5.56597e-015 1.70955e-014
rhumerus -2.28442 23.6878 -71.8933
rradius 60.2796
rwrist 17.1581
rhand -50.2425 -14.4836
rfingers 7.12502
rthumb -22.8218 -43.1534
lclavicle 5.56597e-015 1.70955e-014
lhumerus 15.2054 -35.3443 61.3963
lradius 53.4227
lwrist -24.5409
lhand -19.0179 -30.2774
lfingers 7.12502
lthumb 7.28785 -0.422925
rfemur -32.3983 -3.01187 32.5333
rtibia 33.0345
rfoot -9.20576 -25.0094
rtoes 50.9008
lfemur -37.4351 5.00539 -10.6919
ltibia 41.0467
lfoot -26.1466 -8.89547
ltoes -12.0909
